<?xml version="1.0" encoding="utf-8"?>
<!-- Generator: Adobe Illustrator 15.0.2, SVG Export Plug-In . SVG Version: 6.00 Build 0)  -->
<!DOCTYPE svg PUBLIC "-//W3C//DTD SVG 1.1//EN" "http://www.w3.org/Graphics/SVG/1.1/DTD/svg11.dtd">
<svg version="1.1" id="Ebene_1" xmlns="http://www.w3.org/2000/svg" xmlns:xlink="http://www.w3.org/1999/xlink" x="0px" y="0px"
	 width="417px" height="417px" viewBox="0 -40 417 417" 
	 xml:space="preserve">
<!--
<rect  height="417" width="417" fill="#0066CC" id="svg_12"/>
-->
<g>
	<g>
		<path fill="#003A78" d="M194.887,203.106v13.568c0,2.059,0.462,4.664,4.494,4.664c1.975,0,3.823-0.673,4.957-2.354
			c0.883-1.26,0.883-2.898,0.883-3.948v-11.931h4.074v17.14c0,0.42,0.084,2.772,0.126,3.948h-4.116l-0.084-3.612
			c-0.757,1.47-2.185,3.823-6.722,3.823c-5.209,0-7.646-2.982-7.646-7.142v-14.157H194.887z"/>
		<path fill="#003A78" d="M214.794,205.544l-0.042-2.438h3.949l0.042,3.403c0.462-0.882,1.975-3.823,6.763-3.823
			c1.89,0,7.646,0.715,7.646,7.184v14.324h-4.033v-13.4c0-1.386-0.168-2.646-1.135-3.612c-1.008-0.966-2.394-1.429-3.738-1.429
			c-2.856,0-5.503,2.059-5.503,6.302v12.14h-3.949V205.544z"/>
		<path fill="#003A78" d="M237.684,193.949h4.748v4.327h-4.748V193.949z M238.104,203.106h3.949v21.088h-3.949V203.106z"/>
		<path fill="#003A78" d="M245.117,203.106h4.412l6.721,16.72l6.553-16.72h4.369l-9.242,21.088h-3.99L245.117,203.106z"/>
		<path fill="#003A78" d="M271.787,214.365c-0.084,4.368,1.723,7.603,6.051,7.603c2.561,0,4.619-1.344,4.955-4.368h3.949
			c-0.125,1.05-0.293,2.772-1.807,4.411c-0.924,1.05-3.023,2.814-7.268,2.814c-6.637,0-9.787-4.117-9.787-10.797
			c0-4.158,0.84-7.603,4.158-9.913c2.018-1.429,4.537-1.554,5.756-1.554c9.451,0,9.242,8.359,9.158,11.804H271.787z M282.92,211.593
			c0.041-2.017-0.336-6.217-5.209-6.217c-2.562,0-5.672,1.554-5.756,6.217H282.92z"/>
		<path fill="#003A78" d="M290.688,207.392c0-1.428-0.084-2.898-0.211-4.285h3.992l0.084,4.075c0.756-2.94,3.275-3.907,5.041-4.159
			c1.176-0.168,2.059-0.125,2.73-0.084v3.865c-0.211-0.084-0.463-0.126-0.758-0.168c-0.293-0.042-0.672-0.042-1.133-0.042
			c-4.664,0-5.756,2.772-5.756,6.386v11.215h-3.99V207.392z"/>
		<path fill="#003A78" d="M307.654,217.936c-0.043,1.597,0.799,3.823,4.621,3.823c1.639,0,2.855-0.295,3.695-1.345
			c0.42-0.546,0.674-1.261,0.674-1.974c0-2.059-1.471-2.438-4.621-3.151c-4.412-1.008-8.107-1.89-8.107-6.301
			c0-3.864,3.359-6.386,8.232-6.386c2.646,0,6.344,0.757,7.604,3.277c0.547,1.176,0.547,2.184,0.547,3.066h-4.033
			c0.125-3.193-2.646-3.445-4.074-3.445c-0.588,0-4.285,0-4.285,3.025c0,1.932,1.891,2.395,2.982,2.688
			c5.84,1.387,7.1,1.723,8.359,2.899c1.176,1.092,1.596,2.562,1.596,3.906c0,2.353-1.301,4.369-2.855,5.335
			c-1.85,1.135-4.074,1.428-6.26,1.428c-4.285,0-8.275-1.764-8.232-6.847H307.654z"/>
		<path fill="#003A78" d="M323.74,193.949h4.746v4.327h-4.746V193.949z M324.16,203.106h3.949v21.088h-3.949V203.106z"/>
		<path fill="#003A78" d="M330.291,203.022h3.74v-4.41l3.906-1.26v5.67h4.705v2.898h-4.705v12.645c0,1.051,0,2.814,2.814,2.814
			c0.797,0,1.555-0.125,1.891-0.209v3.066c-0.715,0.125-1.85,0.252-3.277,0.252c-3.613,0-5.334-1.051-5.334-4.495v-14.073h-3.74
			V203.022z"/>
		<path fill="#003A78" d="M354.736,224.321l-3.023,7.855h-4.076l3.193-8.066l-8.779-21.004h4.453l6.594,16.636l6.723-16.636h4.283
			L354.736,224.321z"/>
		<path fill="#003A78" d="M200.432,245.562c8.443,0,10.334,6.637,10.334,11.047c0,6.176-3.487,11.301-10.67,11.301
			c-6.974,0-10.376-4.831-10.376-11.006C189.72,251.694,192.157,245.562,200.432,245.562z M200.18,264.968
			c2.982,0,6.385-2.142,6.385-8.484c0-5.252-2.437-8.023-6.133-8.023c-2.521,0-6.596,1.596-6.596,8.191
			C193.836,260.978,195.685,264.968,200.18,264.968z"/>
		<path fill="#003A78" d="M225.212,239.806c-0.672-0.041-1.512-0.084-2.311-0.084c-3.192,0-3.192,1.597-3.192,3.066v3.318h4.915
			v2.857h-4.915v18.23h-3.906v-18.23h-4.159v-2.857h4.159v-2.394c0-2.899,0.168-3.948,0.882-5.041
			c0.882-1.345,2.562-2.311,5.293-2.311c1.135,0,2.395,0.168,3.234,0.294V239.806z"/>
		<path fill="#003A78" d="M235.752,248.921l-0.084-2.814h3.99v3.067c2.018-3.319,4.873-3.612,6.68-3.612
			c4.662,0,6.133,2.395,6.889,3.948c0.715-1.177,2.438-3.948,7.1-3.948c3.025,0,7.729,1.26,7.729,7.477v14.156h-3.99v-13.525
			c0-1.849-0.336-2.646-0.713-3.193c-0.674-0.966-2.018-1.848-4.033-1.848c-2.562,0-3.949,1.47-4.496,2.227
			c-0.924,1.302-0.924,3.612-0.924,4.536v11.804h-3.99v-13.945c0-2.605-1.512-4.621-4.621-4.621c-2.688,0-4.158,1.68-4.621,2.311
			c-0.881,1.218-0.924,2.939-0.924,4.284v11.972h-3.99V248.921z"/>
		<path fill="#003A78" d="M276.785,246.106v13.568c0,2.059,0.463,4.664,4.494,4.664c1.975,0,3.824-0.673,4.957-2.354
			c0.883-1.26,0.883-2.898,0.883-3.948v-11.931h4.074v17.14c0,0.42,0.084,2.772,0.127,3.948h-4.117l-0.084-3.612
			c-0.756,1.47-2.184,3.823-6.721,3.823c-5.209,0-7.646-2.982-7.646-7.142v-14.157H276.785z"/>
		<path fill="#003A78" d="M298.836,260.936c-0.043,1.597,0.799,3.823,4.621,3.823c1.639,0,2.855-0.295,3.695-1.345
			c0.42-0.546,0.674-1.261,0.674-1.974c0-2.059-1.471-2.438-4.621-3.151c-4.412-1.008-8.107-1.89-8.107-6.301
			c0-3.864,3.359-6.386,8.232-6.386c2.646,0,6.344,0.757,7.604,3.277c0.547,1.176,0.547,2.184,0.547,3.066h-4.033
			c0.125-3.193-2.646-3.445-4.074-3.445c-0.588,0-4.285,0-4.285,3.025c0,1.932,1.891,2.395,2.982,2.688
			c5.84,1.387,7.1,1.723,8.359,2.899c1.176,1.092,1.596,2.562,1.596,3.906c0,2.353-1.301,4.369-2.855,5.335
			c-1.85,1.135-4.074,1.428-6.26,1.428c-4.285,0-8.275-1.764-8.232-6.847H298.836z"/>
		<path fill="#003A78" d="M314.92,236.949h4.748v4.327h-4.748V236.949z M315.34,246.106h3.949v21.088h-3.949V246.106z"/>
		<path fill="#003A78" d="M336.721,252.87c-0.084-0.966-0.377-4.41-4.201-4.41c-5.461,0-5.461,6.343-5.461,7.939
			c0,4.326,1.051,8.359,5.252,8.359c3.359,0,4.494-2.521,4.578-4.579h3.99c-0.252,4.116-3.318,7.562-8.527,7.562
			c-1.428,0-4.705-0.295-6.93-2.73c-1.262-1.471-2.521-3.697-2.521-8.066c0-8.779,5.377-11.383,9.578-11.383
			c1.387,0,4.537,0.293,6.469,2.604c1.555,1.807,1.68,3.529,1.764,4.705H336.721z"/>
		<path fill="#003A78" d="M365.701,267.194c-0.295-1.05-0.379-2.059-0.379-3.15c-1.891,3.486-4.746,3.823-6.51,3.823
			c-4.832,0-7.436-2.731-7.436-6.218c0-1.68,0.588-4.368,3.695-6.175c2.27-1.261,5.629-1.386,7.311-1.386
			c1.008,0,1.639,0.041,2.855,0.125c0-2.604,0-3.738-0.756-4.662c-0.799-1.051-2.52-1.387-3.654-1.387
			c-3.99,0-4.201,2.73-4.242,3.571h-3.949c0.125-1.093,0.252-2.562,1.471-3.991c1.596-1.764,4.578-2.268,6.805-2.268
			c3.066,0,6.344,0.966,7.477,3.107c0.672,1.261,0.715,2.27,0.715,3.235l-0.168,10.081c0,0.336,0.041,3.15,0.336,5.293H365.701z
			 M362.971,256.819c-1.596,0-7.604,0-7.604,4.284c0,1.345,0.84,3.655,4.369,3.655c2.016,0,3.527-0.799,4.494-2.269
			c0.883-1.429,0.924-2.604,1.008-5.546C364.525,256.86,363.936,256.819,362.971,256.819z"/>
		<path fill="#003A78" d="M374.057,248.544l-0.043-2.438h3.949l0.043,3.403c0.461-0.882,1.975-3.823,6.762-3.823
			c1.891,0,7.646,0.715,7.646,7.184v14.324h-4.033v-13.4c0-1.386-0.168-2.646-1.135-3.612c-1.008-0.966-2.395-1.429-3.738-1.429
			c-2.855,0-5.502,2.059-5.502,6.302v12.14h-3.949V248.544z"/>
		<path fill="#003A78" d="M411.943,236.907h3.947v26.927c0,0.462,0.084,2.269,0.168,3.36h-3.947l-0.084-3.36
			c-0.336,0.589-0.799,1.471-1.891,2.227c-1.723,1.177-3.781,1.554-5.209,1.554c-2.814,0-9.074-1.47-9.074-10.711
			c0-8.023,4.58-11.51,9.535-11.51c4.537,0,6.051,2.688,6.555,3.57V236.907z M410.473,250.476c-0.84-1.092-2.395-2.143-4.621-2.143
			c-5.797,0-5.797,7.016-5.797,8.443c0,3.739,0.967,8.066,5.797,8.066c6.217,0,6.217-6.848,6.217-8.486
			C412.068,253.29,411.355,251.61,410.473,250.476z"/>
		<path fill="#003A78" d="M191.148,292.552c0-0.924-0.042-1.428-0.126-3.445h3.991l0.084,3.487c1.975-3.319,5.461-3.823,7.183-3.823
			c4.537,0,8.864,3.109,8.864,10.922c0,7.855-4.579,11.301-9.62,11.301c-3.066,0-5.335-1.303-6.469-3.15v10.459h-3.907V292.552z
			 M200.852,308.095c1.008,0,3.108-0.211,4.453-2.059c1.512-2.059,1.722-5.083,1.722-6.596c0-3.78-1.134-7.729-5.797-7.729
			c-6.301,0-6.301,6.679-6.301,8.569C194.929,302.844,195.307,308.095,200.852,308.095z"/>
		<path fill="#003A78" d="M217.063,300.365c-0.084,4.368,1.723,7.603,6.05,7.603c2.562,0,4.62-1.344,4.956-4.368h3.949
			c-0.125,1.05-0.293,2.772-1.807,4.411c-0.924,1.05-3.023,2.814-7.267,2.814c-6.637,0-9.787-4.117-9.787-10.797
			c0-4.158,0.84-7.603,4.158-9.913c2.017-1.429,4.537-1.554,5.756-1.554c9.451,0,9.242,8.359,9.158,11.804H217.063z
			 M228.195,297.593c0.041-2.017-0.336-6.217-5.209-6.217c-2.562,0-5.671,1.554-5.755,6.217H228.195z"/>
		<path fill="#003A78" d="M235.961,293.392c0-1.428-0.084-2.898-0.209-4.285h3.99l0.084,4.075c0.756-2.94,3.277-3.907,5.041-4.159
			c1.176-0.168,2.059-0.125,2.73-0.084v3.865c-0.209-0.084-0.461-0.126-0.756-0.168s-0.672-0.042-1.135-0.042
			c-4.662,0-5.754,2.772-5.754,6.386v11.215h-3.992V293.392z"/>
		<path fill="#003A78" d="M261.836,282.806c-0.672-0.041-1.512-0.084-2.311-0.084c-3.193,0-3.193,1.597-3.193,3.066v3.318h4.916
			v2.857h-4.916v18.23h-3.906v-18.23h-4.158v-2.857h4.158v-2.394c0-2.899,0.168-3.948,0.883-5.041
			c0.881-1.345,2.562-2.311,5.293-2.311c1.135,0,2.395,0.168,3.234,0.294V282.806z"/>
		<path fill="#003A78" d="M273.637,288.562c8.443,0,10.334,6.637,10.334,11.047c0,6.176-3.486,11.301-10.67,11.301
			c-6.973,0-10.375-4.831-10.375-11.006C262.926,294.694,265.361,288.562,273.637,288.562z M273.385,307.968
			c2.982,0,6.385-2.142,6.385-8.484c0-5.252-2.436-8.023-6.133-8.023c-2.52,0-6.596,1.596-6.596,8.191
			C267.041,303.978,268.891,307.968,273.385,307.968z"/>
		<path fill="#003A78" d="M288.672,293.392c0-1.428-0.084-2.898-0.211-4.285h3.992l0.084,4.075c0.756-2.94,3.275-3.907,5.041-4.159
			c1.176-0.168,2.059-0.125,2.73-0.084v3.865c-0.211-0.084-0.463-0.126-0.758-0.168c-0.293-0.042-0.672-0.042-1.133-0.042
			c-4.664,0-5.756,2.772-5.756,6.386v11.215h-3.99V293.392z"/>
		<path fill="#003A78" d="M303.076,291.921l-0.084-2.814h3.992v3.067c2.016-3.319,4.873-3.612,6.678-3.612
			c4.664,0,6.135,2.395,6.891,3.948c0.713-1.177,2.436-3.948,7.098-3.948c3.025,0,7.73,1.26,7.73,7.477v14.156h-3.99v-13.525
			c0-1.849-0.336-2.646-0.715-3.193c-0.672-0.966-2.016-1.848-4.033-1.848c-2.562,0-3.947,1.47-4.494,2.227
			c-0.924,1.302-0.924,3.612-0.924,4.536v11.804h-3.99v-13.945c0-2.605-1.514-4.621-4.621-4.621c-2.689,0-4.16,1.68-4.621,2.311
			c-0.883,1.218-0.924,2.939-0.924,4.284v11.972h-3.992V291.921z"/>
		<path fill="#003A78" d="M340.709,279.949h4.746v4.327h-4.746V279.949z M341.129,289.106h3.949v21.088h-3.949V289.106z"/>
		<path fill="#003A78" d="M351.209,291.544l-0.043-2.438h3.949l0.043,3.403c0.461-0.882,1.975-3.823,6.762-3.823
			c1.891,0,7.646,0.715,7.646,7.184v14.324h-4.033v-13.4c0-1.386-0.168-2.646-1.135-3.612c-1.008-0.966-2.395-1.429-3.738-1.429
			c-2.855,0-5.502,2.059-5.502,6.302v12.14h-3.949V291.544z"/>
		<path fill="#003A78" d="M378.846,311.833c0.168,2.353,1.176,4.117,4.914,4.117c5.504,0,5.588-3.991,5.588-9.704
			c-1.682,3.487-5.672,3.571-6.932,3.571c-1.934,0-4.705-0.421-6.469-2.605c-1.807-2.143-2.395-4.957-2.395-7.771
			c0-7.141,4.199-10.627,9.367-10.627c4.242,0,5.797,2.1,6.637,3.191l0.043-2.898h3.822l-0.084,3.823l-0.043,13.19
			c0,5.083-0.168,7.141-1.008,8.737c-1.764,3.36-5.881,3.78-8.779,3.78c-8.443,0-8.695-3.948-8.863-6.805H378.846z M388.045,304.776
			c0.84-1.093,1.428-2.227,1.428-6.05c0-2.646-0.588-4.159-1.639-5.251c-1.049-1.134-2.73-1.848-4.537-1.848
			c-4.998,0-5.67,5.041-5.67,7.729c0,3.234,0.967,7.52,5.797,7.52C385.734,306.876,387.078,306.036,388.045,304.776z"/>
		<path fill="#003A78" d="M204.128,353.194c-0.294-1.05-0.378-2.059-0.378-3.15c-1.891,3.486-4.747,3.823-6.511,3.823
			c-4.831,0-7.436-2.731-7.436-6.218c0-1.68,0.588-4.368,3.696-6.175c2.269-1.261,5.629-1.386,7.31-1.386
			c1.008,0,1.639,0.041,2.856,0.125c0-2.604,0-3.738-0.756-4.662c-0.799-1.051-2.521-1.387-3.655-1.387
			c-3.99,0-4.2,2.73-4.242,3.571h-3.949c0.126-1.093,0.252-2.562,1.471-3.991c1.596-1.764,4.579-2.268,6.805-2.268
			c3.067,0,6.344,0.966,7.478,3.107c0.672,1.261,0.714,2.27,0.714,3.235l-0.168,10.081c0,0.336,0.042,3.15,0.336,5.293H204.128z
			 M201.398,342.819c-1.596,0-7.604,0-7.604,4.284c0,1.345,0.841,3.655,4.369,3.655c2.017,0,3.528-0.799,4.495-2.269
			c0.882-1.429,0.924-2.604,1.008-5.546C202.953,342.86,202.364,342.819,201.398,342.819z"/>
		<path fill="#003A78" d="M212.568,336.392c0-1.428-0.084-2.898-0.21-4.285h3.991l0.084,4.075c0.756-2.94,3.276-3.907,5.041-4.159
			c1.176-0.168,2.059-0.125,2.73-0.084v3.865c-0.21-0.084-0.462-0.126-0.757-0.168c-0.294-0.042-0.672-0.042-1.134-0.042
			c-4.663,0-5.755,2.772-5.755,6.386v11.215h-3.991V336.392z"/>
		<path fill="#003A78" d="M222.143,332.022h3.739v-4.41l3.907-1.26v5.67h4.705v2.898h-4.705v12.645c0,1.051,0,2.814,2.814,2.814
			c0.797,0,1.555-0.125,1.891-0.209v3.066c-0.715,0.125-1.85,0.252-3.277,0.252c-3.613,0-5.334-1.051-5.334-4.495v-14.073h-3.739
			V332.022z"/>
		<path fill="#003A78" d="M239.742,346.936c-0.043,1.597,0.799,3.823,4.621,3.823c1.639,0,2.855-0.295,3.695-1.345
			c0.42-0.546,0.674-1.261,0.674-1.974c0-2.059-1.471-2.438-4.621-3.151c-4.412-1.008-8.107-1.89-8.107-6.301
			c0-3.864,3.359-6.386,8.232-6.386c2.646,0,6.344,0.757,7.604,3.277c0.547,1.176,0.547,2.184,0.547,3.066h-4.033
			c0.125-3.193-2.646-3.445-4.074-3.445c-0.588,0-4.285,0-4.285,3.025c0,1.932,1.891,2.395,2.982,2.688
			c5.84,1.387,7.1,1.723,8.359,2.899c1.176,1.092,1.596,2.562,1.596,3.906c0,2.353-1.301,4.369-2.855,5.335
			c-1.85,1.135-4.074,1.428-6.26,1.428c-4.285,0-8.275-1.764-8.232-6.847H239.742z"/>
		<path fill="#003A78" d="M263.176,332.106h4.412l6.721,16.72l6.553-16.72h4.369l-9.242,21.088h-3.99L263.176,332.106z"/>
		<path fill="#003A78" d="M287.453,322.949h4.746v4.327h-4.746V322.949z M287.873,332.106h3.949v21.088h-3.949V332.106z"/>
		<path fill="#003A78" d="M300.01,343.365c-0.084,4.368,1.723,7.603,6.051,7.603c2.561,0,4.619-1.344,4.955-4.368h3.949
			c-0.125,1.05-0.293,2.772-1.807,4.411c-0.924,1.05-3.023,2.814-7.268,2.814c-6.637,0-9.787-4.117-9.787-10.797
			c0-4.158,0.84-7.603,4.158-9.913c2.018-1.429,4.537-1.554,5.756-1.554c9.451,0,9.242,8.359,9.158,11.804H300.01z M311.143,340.593
			c0.041-2.017-0.336-6.217-5.209-6.217c-2.562,0-5.672,1.554-5.756,6.217H311.143z"/>
		<path fill="#003A78" d="M319.455,334.544l-0.041-2.438h3.949l0.041,3.403c0.463-0.882,1.975-3.823,6.764-3.823
			c1.891,0,7.645,0.715,7.645,7.184v14.324h-4.031v-13.4c0-1.386-0.168-2.646-1.135-3.612c-1.008-0.966-2.395-1.429-3.738-1.429
			c-2.857,0-5.504,2.059-5.504,6.302v12.14h-3.949V334.544z"/>
		<path fill="#003A78" d="M343.48,334.544l-0.043-2.438h3.949l0.043,3.403c0.461-0.882,1.975-3.823,6.762-3.823
			c1.891,0,7.646,0.715,7.646,7.184v14.324h-4.033v-13.4c0-1.386-0.168-2.646-1.135-3.612c-1.008-0.966-2.395-1.429-3.738-1.429
			c-2.855,0-5.502,2.059-5.502,6.302v12.14h-3.949V334.544z"/>
		<path fill="#003A78" d="M380.232,353.194c-0.295-1.05-0.379-2.059-0.379-3.15c-1.891,3.486-4.746,3.823-6.51,3.823
			c-4.832,0-7.436-2.731-7.436-6.218c0-1.68,0.588-4.368,3.695-6.175c2.27-1.261,5.629-1.386,7.311-1.386
			c1.008,0,1.639,0.041,2.855,0.125c0-2.604,0-3.738-0.756-4.662c-0.799-1.051-2.52-1.387-3.654-1.387
			c-3.99,0-4.201,2.73-4.242,3.571h-3.949c0.125-1.093,0.252-2.562,1.471-3.991c1.596-1.764,4.578-2.268,6.805-2.268
			c3.066,0,6.344,0.966,7.477,3.107c0.672,1.261,0.715,2.27,0.715,3.235l-0.168,10.081c0,0.336,0.041,3.15,0.336,5.293H380.232z
			 M377.502,342.819c-1.596,0-7.604,0-7.604,4.284c0,1.345,0.84,3.655,4.369,3.655c2.016,0,3.527-0.799,4.494-2.269
			c0.883-1.429,0.924-2.604,1.008-5.546C379.057,342.86,378.467,342.819,377.502,342.819z"/>
	</g>
	<g>
		<path fill="#003A78" d="M193.172,62.228l14.974,59.249c0.745-3.423,1.503-6.628,2.462-10.038c0.758-2.656,1.502-5.302,2.449-7.947
			l13.055-41.264h26.135l15.893,57.146c1.326-5.29,2.842-10.592,4.545-15.883l13.258-41.264h30.285l-34.074,102.406h-29.15
			l-15.528-53.762l-18.735,53.762h-28.027l-28.38-102.406H193.172z"/>
		<path fill="#003A78" d="M122.853,162.847H89.485c8.452-8.661,20.319-14.064,33.371-14.123c-4.204-2.824-12.035-7.373-25.127-7.373
			c-15.289,0-29.429,6.666-38.493,18.748c-10.188,13.388-11.123,27.358-11.123,33.386c0,21.885,9.027,32.428,14.696,37.705
			c11.88,10.945,24.946,15.326,36.346,15.326c8.358,0,16.618-1.557,23.792-4.361c-21.033-0.173-39.087-14.061-44.815-33.266h44.815
			v4.25c0,0,0,0,0,0c-5.198,0-9.412,2.939-9.412,6.562s4.214,6.562,9.412,6.562c0,0,0,0,0.001,0v15.891
			c5.473-2.184,10.545-5.184,15.043-9.141c11.778-10.348,15.579-25.143,15.579-41.354c0-8.1,0-29.188,0-29.188l0.025-116.379
			c0-10.062-0.366-14.796-1.516-19.537c-3.786-15.939-15.352-22.201-21.045-24.284C124.961,0,118.699,0,116.805,0
			c-7.967,0-14.985,1.325-21.816,5.302c-7.209,3.99-10.239,8.169-12.523,11.022c-2.071-3.042-3.788-5.504-6.642-8.168
			C67.29,0.378,58.011,0.189,53.643,0.189c-12.713,0-20.49,5.113-24.088,8.914c-2.286,2.083-3.8,4.747-4.369,5.498V2.272H0v102.432
			h28.595V48.946c0.202-4.557,0.379-6.83,1.149-8.926c2.272-6.83,8.534-10.807,15.554-10.807c10.428,0,13.66,6.635,14.607,10.617
			c0.758,2.462,0.758,5.119,0.758,7.777v57.096h30.35V49.325c0-5.511,0.19-10.44,3.409-14.992
			c4.368-6.066,11.387-6.634,13.647-6.634c1.338,0,5.138,0.189,8.547,2.272c5.882,3.983,6.262,9.86,6.262,16.312L122.853,162.847z
			 M86.361,166.347h36.585v7.042H81.739C83.072,170.897,84.614,168.541,86.361,166.347z M80.038,176.889h42.908v7.125h-7.808
			c-1.007-2.868-4.708-5-9.132-5s-8.125,2.132-9.132,5H77.604C78.227,181.554,79.043,179.175,80.038,176.889z M76.844,187.514
			h20.169c1.186,2.678,4.764,4.625,8.994,4.625s7.808-1.947,8.994-4.625h7.946v7.125H76.149
			C76.196,192.211,76.438,189.834,76.844,187.514z M77.238,205.389c-0.506-2.357-0.831-4.774-0.97-7.25h46.678v7.25H77.238z"/>
	</g>
</g>
</svg>
